<svg xmlns="http://www.w3.org/2000/svg" viewBox="0 0 400 300" width="400" height="300"><defs><radialGradient id="bg" cx="50%" cy="34%" r="75%"><stop offset="0" stop-color="#ffffff"/><stop offset="1" stop-color="#efe7d5"/></radialGradient></defs><rect width="400" height="300" fill="url(#bg)"/><g transform="translate(210 108) rotate(22) scale(1)"><path d="M0 0 C 22 -8 40 -34 44 -66 C 16 -60 -6 -40 -10 -20 C -12 -10 -8 -4 0 0 Z" fill="#4a9b52"/><path d="M0 -2 C 12 -18 24 -38 34 -58" stroke="#357a3d" stroke-width="2.4" fill="none" stroke-linecap="round"/></g><circle cx="170" cy="150" r="12" fill="#d63a5a"/><circle cx="168" cy="148" r="3.5999999999999996" fill="#fff" opacity="0.4"/><circle cx="149" cy="153" r="12" fill="#d63a5a"/><circle cx="147" cy="151" r="3.5999999999999996" fill="#fff" opacity="0.4"/><circle cx="191" cy="153" r="12" fill="#d63a5a"/><circle cx="189" cy="151" r="3.5999999999999996" fill="#fff" opacity="0.4"/><circle cx="159.5" cy="171" r="12" fill="#d63a5a"/><circle cx="157.5" cy="169" r="3.5999999999999996" fill="#fff" opacity="0.4"/><circle cx="180.5" cy="171" r="12" fill="#d63a5a"/><circle cx="178.5" cy="169" r="3.5999999999999996" fill="#fff" opacity="0.4"/><circle cx="170" cy="189" r="12" fill="#d63a5a"/><circle cx="168" cy="187" r="3.5999999999999996" fill="#fff" opacity="0.4"/><circle cx="149" cy="189" r="12" fill="#d63a5a"/><circle cx="147" cy="187" r="3.5999999999999996" fill="#fff" opacity="0.4"/><circle cx="191" cy="189" r="12" fill="#d63a5a"/><circle cx="189" cy="187" r="3.5999999999999996" fill="#fff" opacity="0.4"/><circle cx="248" cy="178" r="8.8" fill="#d63a5a"/><circle cx="246" cy="176" r="2.64" fill="#fff" opacity="0.4"/><circle cx="232.6" cy="180.2" r="8.8" fill="#d63a5a"/><circle cx="230.6" cy="178.2" r="2.64" fill="#fff" opacity="0.4"/><circle cx="263.4" cy="180.2" r="8.8" fill="#d63a5a"/><circle cx="261.4" cy="178.2" r="2.64" fill="#fff" opacity="0.4"/><circle cx="240.3" cy="193.4" r="8.8" fill="#d63a5a"/><circle cx="238.3" cy="191.4" r="2.64" fill="#fff" opacity="0.4"/><circle cx="255.7" cy="193.4" r="8.8" fill="#d63a5a"/><circle cx="253.7" cy="191.4" r="2.64" fill="#fff" opacity="0.4"/><circle cx="248" cy="206.6" r="8.8" fill="#d63a5a"/><circle cx="246" cy="204.6" r="2.64" fill="#fff" opacity="0.4"/><circle cx="232.6" cy="206.6" r="8.8" fill="#d63a5a"/><circle cx="230.6" cy="204.6" r="2.64" fill="#fff" opacity="0.4"/><circle cx="263.4" cy="206.6" r="8.8" fill="#d63a5a"/><circle cx="261.4" cy="204.6" r="2.64" fill="#fff" opacity="0.4"/></svg>