<svg xmlns="http://www.w3.org/2000/svg" viewBox="0 0 400 300" width="400" height="300"><defs><radialGradient id="bg" cx="50%" cy="34%" r="75%"><stop offset="0" stop-color="#ffffff"/><stop offset="1" stop-color="#efe7d5"/></radialGradient></defs><rect width="400" height="300" fill="url(#bg)"/><path d="M120 150 h160 v96 a8 8 0 0 1 -8 8 H128 a8 8 0 0 1 -8 -8 Z" fill="#c98a4b"/><rect x="112" y="130" width="176" height="30" rx="6" fill="#a5713c"/><circle cx="160" cy="138" r="22" fill="#e4572e"/><ellipse cx="152.96" cy="130.08" rx="6.6" ry="8.8" fill="#ffffff" opacity="0.28"/><circle cx="210" cy="132" r="24" fill="#f4a72e"/><ellipse cx="202.32" cy="123.36" rx="7.199999999999999" ry="9.600000000000001" fill="#ffffff" opacity="0.28"/><circle cx="256" cy="140" r="20" fill="#7b3f8f"/><ellipse cx="249.6" cy="132.8" rx="6" ry="8" fill="#ffffff" opacity="0.28"/><g transform="translate(196 150) rotate(0) scale(0.8)"><path d="M0 0 C 22 -8 40 -34 44 -66 C 16 -60 -6 -40 -10 -20 C -12 -10 -8 -4 0 0 Z" fill="#4a9b52"/><path d="M0 -2 C 12 -18 24 -38 34 -58" stroke="#357a3d" stroke-width="2.4" fill="none" stroke-linecap="round"/></g><path d="M200 130 v124 M120 150 h160" stroke="#8a5a2b" stroke-width="4" opacity="0.5"/></svg>