<svg xmlns="http://www.w3.org/2000/svg" viewBox="0 0 400 300" width="400" height="300"><defs><radialGradient id="bg" cx="50%" cy="34%" r="75%"><stop offset="0" stop-color="#ffffff"/><stop offset="1" stop-color="#efe7d5"/></radialGradient></defs><rect width="400" height="300" fill="url(#bg)"/><path d="M150 130 C 150 90 190 78 200 120 C 210 78 250 90 250 130 C 250 200 210 250 200 250 C 190 250 150 200 150 130 Z" fill="#3f6b2f" transform="translate(-56 0)"/><g transform="translate(54 6)"><path d="M150 130 C 150 90 190 78 200 120 C 210 78 250 90 250 130 C 250 200 210 250 200 250 C 190 250 150 200 150 130 Z" fill="#4a7a38"/><path d="M158 132 C 158 98 190 90 200 124 C 210 92 242 100 242 132 C 242 194 208 238 200 238 C 192 238 158 194 158 132 Z" fill="#cfe08a"/><circle cx="200" cy="168" r="26" fill="#8a5a2b"/></g></svg>