<svg xmlns="http://www.w3.org/2000/svg" viewBox="0 0 400 300" width="400" height="300"><defs><radialGradient id="bg" cx="50%" cy="34%" r="75%"><stop offset="0" stop-color="#ffffff"/><stop offset="1" stop-color="#efe7d5"/></radialGradient></defs><rect width="400" height="300" fill="url(#bg)"/><g transform="translate(170 150) rotate(40)"><path d="M0 -70 C 26 -66 34 -30 30 20 C 28 56 -2 68 -18 44 C -28 28 -22 -30 8 -60 C -6 -66 -4 -68 0 -70 Z" fill="#4a9b52"/><path d="M0 -70 q-2-16 -12-20" stroke="#357a3d" stroke-width="6" fill="none" stroke-linecap="round"/><path d="M-14 -30 C -18 4 -14 34 -6 44" stroke="#fff" stroke-width="4" opacity="0.25" fill="none"/></g><g transform="translate(230 150) rotate(-30)"><path d="M0 -70 C 26 -66 34 -30 30 20 C 28 56 -2 68 -18 44 C -28 28 -22 -30 -6 -60 C -6 -66 -4 -68 0 -70 Z" fill="#4a9b52"/><path d="M0 -70 q-2-16 -12-20" stroke="#357a3d" stroke-width="6" fill="none" stroke-linecap="round"/><path d="M-14 -30 C -18 4 -14 34 -6 44" stroke="#fff" stroke-width="4" opacity="0.25" fill="none"/></g></svg>