<svg xmlns="http://www.w3.org/2000/svg" viewBox="0 0 400 300" width="400" height="300"><defs><radialGradient id="bg" cx="50%" cy="34%" r="78%"><stop offset="0" stop-color="#ffffff"/><stop offset="1" stop-color="#efe7d5"/></radialGradient></defs><rect width="400" height="300" fill="url(#bg)"/><circle cx="150" cy="156" r="20" fill="#f4c430"/><ellipse cx="143.6" cy="149.2" rx="5.6000000000000005" ry="7.6" fill="#fff" opacity="0.26"/><circle cx="188" cy="146" r="23" fill="#ef8a2c"/><ellipse cx="180.64" cy="138.18" rx="6.44" ry="8.74" fill="#fff" opacity="0.26"/><circle cx="226" cy="152" r="21" fill="#d9b48a"/><ellipse cx="219.28" cy="144.86" rx="5.880000000000001" ry="7.98" fill="#fff" opacity="0.26"/><circle cx="260" cy="162" r="19" fill="#4a9b52"/><ellipse cx="253.92" cy="155.54" rx="5.32" ry="7.22" fill="#fff" opacity="0.26"/><circle cx="136" cy="178" r="19" fill="#9b2d5e"/><ellipse cx="129.92" cy="171.54" rx="5.32" ry="7.22" fill="#fff" opacity="0.26"/><circle cx="176" cy="176" r="23" fill="#f4c430"/><ellipse cx="168.64" cy="168.18" rx="6.44" ry="8.74" fill="#fff" opacity="0.26"/><circle cx="214" cy="178" r="23" fill="#4a9b52"/><ellipse cx="206.64" cy="170.18" rx="6.44" ry="8.74" fill="#fff" opacity="0.26"/><circle cx="252" cy="180" r="20" fill="#ef8a2c"/><ellipse cx="245.6" cy="173.2" rx="5.6000000000000005" ry="7.6" fill="#fff" opacity="0.26"/><g transform="translate(168 132) rotate(-14) scale(0.7)"><path d="M0 0 C 22 -8 40 -34 44 -66 C 16 -60 -6 -40 -10 -20 C -12 -10 -8 -4 0 0 Z" fill="#4a9b52"/></g><g transform="translate(236 128) rotate(16) scale(0.7)"><path d="M0 0 C 22 -8 40 -34 44 -66 C 16 -60 -6 -40 -10 -20 C -12 -10 -8 -4 0 0 Z" fill="#4a9b52"/></g><path d="M108 190 h184 v6 l-16 66 a8 8 0 0 1 -8 6 H132 a8 8 0 0 1 -8 -6 l-16 -66 Z" fill="#cf9358"/><rect x="100" y="182" width="200" height="20" rx="10" fill="#a5713c"/><path d="M132 206 l10 58 M172 206 l4 58 M214 206 l-4 58 M256 206 l-10 58" stroke="#b07c44" stroke-width="4" opacity="0.7" fill="none"/><path d="M120 224 q80 16 160 0 M124 246 q76 14 152 0" stroke="#b07c44" stroke-width="4" opacity="0.6" fill="none"/></svg>