<svg xmlns="http://www.w3.org/2000/svg" viewBox="0 0 400 300" width="400" height="300"><defs><radialGradient id="bg" cx="50%" cy="34%" r="78%"><stop offset="0" stop-color="#ffffff"/><stop offset="1" stop-color="#efe7d5"/></radialGradient></defs><rect width="400" height="300" fill="url(#bg)"/><rect x="150" y="96" width="34" height="96" rx="9" fill="#6f9a55"/><rect x="158" y="80" width="18" height="18" fill="#6f9a55"/><rect x="156" y="72" width="22" height="10" rx="3" fill="#3f5e33"/><rect x="150" y="140" width="34" height="30" rx="4" fill="#f5edd8"/><rect x="196" y="120" width="42" height="72" rx="8" fill="#e9dcc0"/><ellipse cx="217" cy="120" rx="21" ry="7" fill="#c9b48a"/><rect x="198" y="150" width="38" height="26" rx="3" fill="#f5edd8"/><circle cx="262" cy="150" r="20" fill="#e4572e"/><ellipse cx="255.6" cy="143.2" rx="5.6000000000000005" ry="7.6" fill="#fff" opacity="0.26"/><circle cx="258" cy="176" r="16" fill="#c04a1e"/><ellipse cx="252.88" cy="170.56" rx="4.48" ry="6.08" fill="#fff" opacity="0.26"/><g transform="translate(150 150) rotate(-20) scale(0.7)"><path d="M0 0 C 22 -8 40 -34 44 -66 C 16 -60 -6 -40 -10 -20 C -12 -10 -8 -4 0 0 Z" fill="#4a9b52"/></g><path d="M108 190 h184 v6 l-16 66 a8 8 0 0 1 -8 6 H132 a8 8 0 0 1 -8 -6 l-16 -66 Z" fill="#cf9358"/><rect x="100" y="182" width="200" height="20" rx="10" fill="#a5713c"/><path d="M132 206 l10 58 M172 206 l4 58 M214 206 l-4 58 M256 206 l-10 58" stroke="#b07c44" stroke-width="4" opacity="0.7" fill="none"/><path d="M120 224 q80 16 160 0 M124 246 q76 14 152 0" stroke="#b07c44" stroke-width="4" opacity="0.6" fill="none"/></svg>