<svg xmlns="http://www.w3.org/2000/svg" viewBox="0 0 400 300" width="400" height="300"><defs><radialGradient id="bg" cx="50%" cy="34%" r="75%"><stop offset="0" stop-color="#ffffff"/><stop offset="1" stop-color="#efe7d5"/></radialGradient></defs><rect width="400" height="300" fill="url(#bg)"/><g transform="translate(160 170) scale(0.9)"><ellipse cx="0" cy="0" rx="22" ry="30" fill="#2a5e2f"/><path d="M0 26 V-26" stroke="#2a5e2f" stroke-width="2" opacity="0.6"/></g><g transform="translate(184 144) scale(0.75)"><ellipse cx="0" cy="0" rx="22" ry="30" fill="#3c8144"/><path d="M0 26 V-26" stroke="#2a5e2f" stroke-width="2" opacity="0.6"/></g><g transform="translate(208 140) scale(0.9)"><ellipse cx="0" cy="0" rx="22" ry="30" fill="#2a5e2f"/><path d="M0 26 V-26" stroke="#2a5e2f" stroke-width="2" opacity="0.6"/></g><g transform="translate(232 156) scale(0.75)"><ellipse cx="0" cy="0" rx="22" ry="30" fill="#3c8144"/><path d="M0 26 V-26" stroke="#2a5e2f" stroke-width="2" opacity="0.6"/></g><g transform="translate(194 180) scale(0.9)"><ellipse cx="0" cy="0" rx="22" ry="30" fill="#2a5e2f"/><path d="M0 26 V-26" stroke="#2a5e2f" stroke-width="2" opacity="0.6"/></g><g transform="translate(222 180) scale(0.75)"><ellipse cx="0" cy="0" rx="22" ry="30" fill="#3c8144"/><path d="M0 26 V-26" stroke="#2a5e2f" stroke-width="2" opacity="0.6"/></g><path d="M200 176 V132" stroke="#2a5e2f" stroke-width="5" stroke-linecap="round"/></svg>