<svg xmlns="http://www.w3.org/2000/svg" viewBox="0 0 400 300" width="400" height="300"><defs><radialGradient id="bg" cx="50%" cy="34%" r="75%"><stop offset="0" stop-color="#ffffff"/><stop offset="1" stop-color="#efe7d5"/></radialGradient></defs><rect width="400" height="300" fill="url(#bg)"/><g transform="translate(148 210) rotate(4) scale(1.35)"><path d="M0 0 C 22 -8 40 -34 44 -66 C 16 -60 -6 -40 -10 -20 C -12 -10 -8 -4 0 0 Z" fill="#215c26"/><path d="M0 -2 C 12 -18 24 -38 34 -58" stroke="#215c26" stroke-width="2.4" fill="none" stroke-linecap="round"/></g><g transform="translate(174 210) rotate(12) scale(1.4700000000000002)"><path d="M0 0 C 22 -8 40 -34 44 -66 C 16 -60 -6 -40 -10 -20 C -12 -10 -8 -4 0 0 Z" fill="#2f7d33"/><path d="M0 -2 C 12 -18 24 -38 34 -58" stroke="#215c26" stroke-width="2.4" fill="none" stroke-linecap="round"/></g><g transform="translate(200 210) rotate(24) scale(1.59)"><path d="M0 0 C 22 -8 40 -34 44 -66 C 16 -60 -6 -40 -10 -20 C -12 -10 -8 -4 0 0 Z" fill="#215c26"/><path d="M0 -2 C 12 -18 24 -38 34 -58" stroke="#215c26" stroke-width="2.4" fill="none" stroke-linecap="round"/></g><g transform="translate(226 210) rotate(36) scale(1.35)"><path d="M0 0 C 22 -8 40 -34 44 -66 C 16 -60 -6 -40 -10 -20 C -12 -10 -8 -4 0 0 Z" fill="#2f7d33"/><path d="M0 -2 C 12 -18 24 -38 34 -58" stroke="#215c26" stroke-width="2.4" fill="none" stroke-linecap="round"/></g><g transform="translate(252 210) rotate(30) scale(1.4700000000000002)"><path d="M0 0 C 22 -8 40 -34 44 -66 C 16 -60 -6 -40 -10 -20 C -12 -10 -8 -4 0 0 Z" fill="#215c26"/><path d="M0 -2 C 12 -18 24 -38 34 -58" stroke="#215c26" stroke-width="2.4" fill="none" stroke-linecap="round"/></g><g transform="translate(186 210) rotate(-8) scale(1.59)"><path d="M0 0 C 22 -8 40 -34 44 -66 C 16 -60 -6 -40 -10 -20 C -12 -10 -8 -4 0 0 Z" fill="#2f7d33"/><path d="M0 -2 C 12 -18 24 -38 34 -58" stroke="#215c26" stroke-width="2.4" fill="none" stroke-linecap="round"/></g><g transform="translate(214 210) rotate(44) scale(1.35)"><path d="M0 0 C 22 -8 40 -34 44 -66 C 16 -60 -6 -40 -10 -20 C -12 -10 -8 -4 0 0 Z" fill="#215c26"/><path d="M0 -2 C 12 -18 24 -38 34 -58" stroke="#215c26" stroke-width="2.4" fill="none" stroke-linecap="round"/></g><path d="M176 210 q24 30 48 0" stroke="#215c26" stroke-width="6" fill="none" stroke-linecap="round"/></svg>