<svg xmlns="http://www.w3.org/2000/svg" viewBox="0 0 400 300" width="400" height="300"><defs><radialGradient id="bg" cx="50%" cy="34%" r="75%"><stop offset="0" stop-color="#ffffff"/><stop offset="1" stop-color="#efe7d5"/></radialGradient></defs><rect width="400" height="300" fill="url(#bg)"/><circle cx="168" cy="172" r="58" fill="#f2a83c"/><ellipse cx="149.44" cy="151.12" rx="17.4" ry="23.200000000000003" fill="#ffffff" opacity="0.28"/><path d="M168 114 q-10 58 0 116" stroke="#e07f2a" stroke-width="3" fill="none" opacity="0.7"/><circle cx="252" cy="182" r="50" fill="#f2a83c"/><ellipse cx="236" cy="164" rx="15" ry="20" fill="#ffffff" opacity="0.28"/><path d="M252 132 q-10 50 0 100" stroke="#e07f2a" stroke-width="3" fill="none" opacity="0.7"/><g transform="translate(196 120) rotate(-18) scale(1)"><path d="M0 0 C 22 -8 40 -34 44 -66 C 16 -60 -6 -40 -10 -20 C -12 -10 -8 -4 0 0 Z" fill="#5aa95f"/><path d="M0 -2 C 12 -18 24 -38 34 -58" stroke="#3c8144" stroke-width="2.4" fill="none" stroke-linecap="round"/></g></svg>