<svg xmlns="http://www.w3.org/2000/svg" viewBox="0 0 400 300" width="400" height="300"><defs><radialGradient id="bg" cx="50%" cy="34%" r="75%"><stop offset="0" stop-color="#ffffff"/><stop offset="1" stop-color="#efe7d5"/></radialGradient></defs><rect width="400" height="300" fill="url(#bg)"/><path d="M150 150 C 150 250 250 250 250 150 C 250 90 150 90 150 150 Z" fill="#f4c430"/><circle cx="168" cy="120" r="6.5" fill="#f6d84a" stroke="#e0a81f" stroke-width="1.2"/><circle cx="184" cy="120" r="6.5" fill="#f6d84a" stroke="#e0a81f" stroke-width="1.2"/><circle cx="200" cy="120" r="6.5" fill="#f6d84a" stroke="#e0a81f" stroke-width="1.2"/><circle cx="216" cy="120" r="6.5" fill="#f6d84a" stroke="#e0a81f" stroke-width="1.2"/><circle cx="232" cy="120" r="6.5" fill="#f6d84a" stroke="#e0a81f" stroke-width="1.2"/><circle cx="168" cy="142" r="6.5" fill="#f6d84a" stroke="#e0a81f" stroke-width="1.2"/><circle cx="184" cy="142" r="6.5" fill="#f6d84a" stroke="#e0a81f" stroke-width="1.2"/><circle cx="200" cy="142" r="6.5" fill="#f6d84a" stroke="#e0a81f" stroke-width="1.2"/><circle cx="216" cy="142" r="6.5" fill="#f6d84a" stroke="#e0a81f" stroke-width="1.2"/><circle cx="232" cy="142" r="6.5" fill="#f6d84a" stroke="#e0a81f" stroke-width="1.2"/><circle cx="168" cy="164" r="6.5" fill="#f6d84a" stroke="#e0a81f" stroke-width="1.2"/><circle cx="184" cy="164" r="6.5" fill="#f6d84a" stroke="#e0a81f" stroke-width="1.2"/><circle cx="200" cy="164" r="6.5" fill="#f6d84a" stroke="#e0a81f" stroke-width="1.2"/><circle cx="216" cy="164" r="6.5" fill="#f6d84a" stroke="#e0a81f" stroke-width="1.2"/><circle cx="232" cy="164" r="6.5" fill="#f6d84a" stroke="#e0a81f" stroke-width="1.2"/><circle cx="168" cy="186" r="6.5" fill="#f6d84a" stroke="#e0a81f" stroke-width="1.2"/><circle cx="184" cy="186" r="6.5" fill="#f6d84a" stroke="#e0a81f" stroke-width="1.2"/><circle cx="200" cy="186" r="6.5" fill="#f6d84a" stroke="#e0a81f" stroke-width="1.2"/><circle cx="216" cy="186" r="6.5" fill="#f6d84a" stroke="#e0a81f" stroke-width="1.2"/><circle cx="232" cy="186" r="6.5" fill="#f6d84a" stroke="#e0a81f" stroke-width="1.2"/><circle cx="168" cy="208" r="6.5" fill="#f6d84a" stroke="#e0a81f" stroke-width="1.2"/><circle cx="184" cy="208" r="6.5" fill="#f6d84a" stroke="#e0a81f" stroke-width="1.2"/><circle cx="200" cy="208" r="6.5" fill="#f6d84a" stroke="#e0a81f" stroke-width="1.2"/><circle cx="216" cy="208" r="6.5" fill="#f6d84a" stroke="#e0a81f" stroke-width="1.2"/><circle cx="232" cy="208" r="6.5" fill="#f6d84a" stroke="#e0a81f" stroke-width="1.2"/><circle cx="168" cy="230" r="6.5" fill="#f6d84a" stroke="#e0a81f" stroke-width="1.2"/><circle cx="184" cy="230" r="6.5" fill="#f6d84a" stroke="#e0a81f" stroke-width="1.2"/><circle cx="200" cy="230" r="6.5" fill="#f6d84a" stroke="#e0a81f" stroke-width="1.2"/><circle cx="216" cy="230" r="6.5" fill="#f6d84a" stroke="#e0a81f" stroke-width="1.2"/><circle cx="232" cy="230" r="6.5" fill="#f6d84a" stroke="#e0a81f" stroke-width="1.2"/><path d="M150 150 C 120 120 118 80 150 60 C 150 120 170 130 170 150 Z" fill="#7bbf5a"/><path d="M250 150 C 280 120 282 80 250 60 C 250 120 230 130 230 150 Z" fill="#6bb04f"/></svg>