<svg xmlns="http://www.w3.org/2000/svg" viewBox="0 0 400 300" width="400" height="300"><defs><radialGradient id="bg" cx="50%" cy="34%" r="75%"><stop offset="0" stop-color="#ffffff"/><stop offset="1" stop-color="#efe7d5"/></radialGradient></defs><rect width="400" height="300" fill="url(#bg)"/><g transform="translate(170 160) rotate(18) scale(1)"><path d="M0 0 C 22 -8 40 -34 44 -66 C 16 -60 -6 -40 -10 -20 C -12 -10 -8 -4 0 0 Z" fill="#4a9b52"/><path d="M0 -2 C 12 -18 24 -38 34 -58" stroke="#357a3d" stroke-width="2.4" fill="none" stroke-linecap="round"/></g><g transform="translate(200 152) rotate(0) scale(1)"><path d="M0 0 C 22 -8 40 -34 44 -66 C 16 -60 -6 -40 -10 -20 C -12 -10 -8 -4 0 0 Z" fill="#4a9b52"/><path d="M0 -2 C 12 -18 24 -38 34 -58" stroke="#357a3d" stroke-width="2.4" fill="none" stroke-linecap="round"/></g><g transform="translate(230 160) rotate(-18) scale(1)"><path d="M0 0 C 22 -8 40 -34 44 -66 C 16 -60 -6 -40 -10 -20 C -12 -10 -8 -4 0 0 Z" fill="#4a9b52"/><path d="M0 -2 C 12 -18 24 -38 34 -58" stroke="#357a3d" stroke-width="2.4" fill="none" stroke-linecap="round"/></g><path d="M140 150 C 140 110 260 110 260 150 C 260 200 224 244 200 262 C 176 244 140 200 140 150 Z" fill="#9b2d5e"/><path d="M200 262 C 206 274 210 282 214 292" stroke="#7a1f49" stroke-width="4" fill="none" stroke-linecap="round"/><ellipse cx="176" cy="150" rx="16" ry="26" fill="#fff" opacity="0.14"/></svg>