<svg xmlns="http://www.w3.org/2000/svg" viewBox="0 0 400 300" width="400" height="300"><defs><radialGradient id="bg" cx="50%" cy="34%" r="75%"><stop offset="0" stop-color="#ffffff"/><stop offset="1" stop-color="#efe7d5"/></radialGradient></defs><rect width="400" height="300" fill="url(#bg)"/><path d="M214 96 C 214 150 268 156 262 210 C 256 258 210 268 186 262 C 150 252 138 206 158 168 C 176 134 186 120 190 100 Z" fill="#5b2a86"/><path d="M190 100 q-2-22 -18-30 q26 0 34 18 q14 -10 30 -6 q-14 12 -22 26 Z" fill="#4a9b52"/><path d="M198 96 v-22" stroke="#357a3d" stroke-width="7" stroke-linecap="round"/><path d="M176 150 C 166 186 172 220 190 244" stroke="#fff" stroke-width="6" opacity="0.2" fill="none"/></svg>