<svg xmlns="http://www.w3.org/2000/svg" viewBox="0 0 400 300" width="400" height="300"><defs><radialGradient id="bg" cx="50%" cy="34%" r="75%"><stop offset="0" stop-color="#ffffff"/><stop offset="1" stop-color="#efe7d5"/></radialGradient></defs><rect width="400" height="300" fill="url(#bg)"/><circle cx="168" cy="168" r="62" fill="#ef8a2c"/><ellipse cx="148.16" cy="145.68" rx="18.599999999999998" ry="24.8" fill="#ffffff" opacity="0.28"/><g transform="translate(266 172)"><circle r="52" fill="#f7b24d"/><circle r="46" fill="#fce0a8"/><path d="M0 0 L44 0" stroke="#f2c777" stroke-width="3"/><path d="M0 0 L31.113419039659462 31.111977688063426" stroke="#f2c777" stroke-width="3"/><path d="M0 0 L0.0020383789747181412 43.999999952784215" stroke="#f2c777" stroke-width="3"/><path d="M0 0 L-31.11053626969573 31.114860324480755" stroke="#f2c777" stroke-width="3"/><path d="M0 0 L-43.999999811136874 0.004076757945061571" stroke="#f2c777" stroke-width="3"/><path d="M0 0 L-31.116301542524198 -31.10909478455949" stroke="#f2c777" stroke-width="3"/><path d="M0 0 L-0.006115136906665347 -43.999999575057956" stroke="#f2c777" stroke-width="3"/><path d="M0 0 L31.10765323265776 -31.117742693786727" stroke="#f2c777" stroke-width="3"/><circle r="10" fill="#f7d79a"/></g><g transform="translate(150 116) rotate(-30) scale(1)"><path d="M0 0 C 22 -8 40 -34 44 -66 C 16 -60 -6 -40 -10 -20 C -12 -10 -8 -4 0 0 Z" fill="#4a9b52"/><path d="M0 -2 C 12 -18 24 -38 34 -58" stroke="#357a3d" stroke-width="2.4" fill="none" stroke-linecap="round"/></g></svg>