<svg xmlns="http://www.w3.org/2000/svg" viewBox="0 0 400 300" width="400" height="300"><defs><radialGradient id="bg" cx="50%" cy="34%" r="75%"><stop offset="0" stop-color="#ffffff"/><stop offset="1" stop-color="#efe7d5"/></radialGradient></defs><rect width="400" height="300" fill="url(#bg)"/><path d="M200 96 q-8 12 -20 16" stroke="#b98f5a" stroke-width="6" fill="none" stroke-linecap="round"/><path d="M200 96 q8 12 20 16" stroke="#b98f5a" stroke-width="6" fill="none" stroke-linecap="round"/><path d="M126 176 C 126 118 274 118 274 176 C 274 224 236 250 200 250 C 164 250 126 224 126 176 Z" fill="#c98a4b"/><path d="M200 118 C 176 160 176 210 200 248 M164 126 C 150 170 154 214 176 244 M236 126 C 250 170 246 214 224 244" stroke="#a5713c" stroke-width="2.6" fill="none" opacity="0.8"/></svg>