<svg xmlns="http://www.w3.org/2000/svg" viewBox="0 0 400 300" width="400" height="300"><defs><radialGradient id="bg" cx="50%" cy="34%" r="75%"><stop offset="0" stop-color="#ffffff"/><stop offset="1" stop-color="#efe7d5"/></radialGradient></defs><rect width="400" height="300" fill="url(#bg)"/><g transform="translate(214 96) rotate(20) scale(1.1)"><path d="M0 0 C 22 -8 40 -34 44 -66 C 16 -60 -6 -40 -10 -20 C -12 -10 -8 -4 0 0 Z" fill="#5aa95f"/><path d="M0 -2 C 12 -18 24 -38 34 -58" stroke="#3c8144" stroke-width="2.4" fill="none" stroke-linecap="round"/></g><circle cx="200" cy="132" r="15" fill="#9bc24a"/><ellipse cx="195.2" cy="126.6" rx="4.5" ry="6" fill="#ffffff" opacity="0.28"/><circle cx="174" cy="132" r="15" fill="#9bc24a"/><ellipse cx="169.2" cy="126.6" rx="4.5" ry="6" fill="#ffffff" opacity="0.28"/><circle cx="226" cy="132" r="15" fill="#9bc24a"/><ellipse cx="221.2" cy="126.6" rx="4.5" ry="6" fill="#ffffff" opacity="0.28"/><circle cx="187" cy="156" r="15" fill="#9bc24a"/><ellipse cx="182.2" cy="150.6" rx="4.5" ry="6" fill="#ffffff" opacity="0.28"/><circle cx="213" cy="156" r="15" fill="#9bc24a"/><ellipse cx="208.2" cy="150.6" rx="4.5" ry="6" fill="#ffffff" opacity="0.28"/><circle cx="161" cy="156" r="15" fill="#9bc24a"/><ellipse cx="156.2" cy="150.6" rx="4.5" ry="6" fill="#ffffff" opacity="0.28"/><circle cx="239" cy="156" r="15" fill="#9bc24a"/><ellipse cx="234.2" cy="150.6" rx="4.5" ry="6" fill="#ffffff" opacity="0.28"/><circle cx="200" cy="180" r="15" fill="#9bc24a"/><ellipse cx="195.2" cy="174.6" rx="4.5" ry="6" fill="#ffffff" opacity="0.28"/><circle cx="174" cy="180" r="15" fill="#9bc24a"/><ellipse cx="169.2" cy="174.6" rx="4.5" ry="6" fill="#ffffff" opacity="0.28"/><circle cx="226" cy="180" r="15" fill="#9bc24a"/><ellipse cx="221.2" cy="174.6" rx="4.5" ry="6" fill="#ffffff" opacity="0.28"/><circle cx="187" cy="204" r="15" fill="#9bc24a"/><ellipse cx="182.2" cy="198.6" rx="4.5" ry="6" fill="#ffffff" opacity="0.28"/><circle cx="213" cy="204" r="15" fill="#9bc24a"/><ellipse cx="208.2" cy="198.6" rx="4.5" ry="6" fill="#ffffff" opacity="0.28"/><circle cx="200" cy="228" r="15" fill="#9bc24a"/><ellipse cx="195.2" cy="222.6" rx="4.5" ry="6" fill="#ffffff" opacity="0.28"/><path d="M200 118 q-6-20 6-30" stroke="#7a5230" stroke-width="4" fill="none" stroke-linecap="round"/></svg>