<svg xmlns="http://www.w3.org/2000/svg" viewBox="0 0 400 300" width="400" height="300"><defs><radialGradient id="bg" cx="50%" cy="34%" r="75%"><stop offset="0" stop-color="#ffffff"/><stop offset="1" stop-color="#efe7d5"/></radialGradient></defs><rect width="400" height="300" fill="url(#bg)"/><g transform="translate(158 182) rotate(-18) scale(1.1)"><path d="M0 -46 C 30 -40 46 -14 40 20 C 22 8 20 26 0 30 C -20 26 -22 8 -40 20 C -46 -14 -30 -40 0 -46 Z" fill="#3c8144"/><path d="M0 22 V-30 M0 -6 L-24 -2 M0 -6 L24 -2" stroke="#2f6b38" stroke-width="2" fill="none"/></g><g transform="translate(240 184) rotate(18) scale(1.1)"><path d="M0 -46 C 30 -40 46 -14 40 20 C 22 8 20 26 0 30 C -20 26 -22 8 -40 20 C -46 -14 -30 -40 0 -46 Z" fill="#3c8144"/><path d="M0 22 V-30 M0 -6 L-24 -2 M0 -6 L24 -2" stroke="#2f6b38" stroke-width="2" fill="none"/></g><g transform="translate(200 164) rotate(0) scale(1.5)"><path d="M0 -46 C 30 -40 46 -14 40 20 C 22 8 20 26 0 30 C -20 26 -22 8 -40 20 C -46 -14 -30 -40 0 -46 Z" fill="#6ba84f"/><path d="M0 22 V-30 M0 -6 L-24 -2 M0 -6 L24 -2" stroke="#2f6b38" stroke-width="2" fill="none"/></g></svg>